<svg id="Group_33" data-name="Group 33" xmlns="http://www.w3.org/2000/svg" width="48.122" height="34.29" viewBox="0 0 48.122 34.29">
  <path id="Path_35" data-name="Path 35" d="M43.366,44.97H8.915A6.844,6.844,0,0,1,2.08,38.135V17.515A6.844,6.844,0,0,1,8.915,10.68H43.366A6.844,6.844,0,0,1,50.2,17.515V38.135A6.844,6.844,0,0,1,43.366,44.97ZM8.915,13.093a4.423,4.423,0,0,0-4.423,4.423V38.135a4.423,4.423,0,0,0,4.423,4.423H43.366a4.423,4.423,0,0,0,4.423-4.423V17.515a4.423,4.423,0,0,0-4.423-4.423Z" transform="translate(-2.08 -10.68)" fill="#ea5656"/>
  <path id="Path_36" data-name="Path 36" d="M26.3,33.753a6.844,6.844,0,0,1-4.125-1.375L3.395,18.176a1.206,1.206,0,1,1,1.456-1.922L23.628,30.472a4.463,4.463,0,0,0,5.34,0L47.745,16.254A1.206,1.206,0,1,1,49.2,18.176l-18.777,14.2A6.844,6.844,0,0,1,26.3,33.753Z" transform="translate(-2.237 -11.718)" fill="#ea5656"/>
  <path id="Path_37" data-name="Path 37" d="M3.876,45.339a1.206,1.206,0,0,1-.8-2.107l14.8-13.2a1.207,1.207,0,1,1,1.608,1.8l-14.8,13.2A1.174,1.174,0,0,1,3.876,45.339Zm44.76,0a1.174,1.174,0,0,1-.8-.306l-14.8-13.2a1.207,1.207,0,0,1,1.608-1.8l14.789,13.2a1.206,1.206,0,0,1-.8,2.107Z" transform="translate(-2.195 -14.41)" fill="#ea5656"/>
</svg>
