<svg xmlns="http://www.w3.org/2000/svg" width="53.68" height="53.68" viewBox="0 0 53.68 53.68">
  <g id="Group_15" data-name="Group 15" transform="translate(-194.969 -276.563)">
    <path id="Path_21" data-name="Path 21" d="M221.809,276.563a26.84,26.84,0,0,0,0,53.68c.381,0,.758-.009,1.135-.025V310.626H218.9v-6.752h4.049v-4.053c0-5.509,2.281-8.787,8.77-8.787h5.4v6.756h-3.376c-2.526,0-2.695.942-2.695,2.7l-.008,3.38h6.117l-.715,6.752h-5.4v17.99a26.845,26.845,0,0,0-9.228-52.053Z" fill="#3b5998"/>
    <path id="Path_22" data-name="Path 22" d="M385.636,384.141c-6.489,0-8.77,3.278-8.77,8.787v4.053h-4.049v6.752h4.049v19.592a26.744,26.744,0,0,0,8.093-1.6v-17.99h5.4l.715-6.752H384.96l.008-3.38c0-1.761.169-2.7,2.695-2.7h3.376v-6.756h-5.4Z" transform="translate(-153.922 -93.104)" fill="#fff"/>
  </g>
</svg>
