<svg xmlns="http://www.w3.org/2000/svg" width="37.755" height="47.057" viewBox="0 0 37.755 47.057">
  <g id="Group_32" data-name="Group 32" transform="translate(1.5 1.5)">
    <circle id="Ellipse_13" data-name="Ellipse 13" cx="10.951" cy="10.951" r="10.951" transform="translate(6.42 0)" fill="none" stroke="#ea5656" stroke-linecap="round" stroke-linejoin="round" stroke-width="3"/>
    <path id="Path_32" data-name="Path 32" d="M0,20.1a5.078,5.078,0,0,1,.5-2.224c1.049-2.1,4.007-3.21,6.461-3.713a38.454,38.454,0,0,1,5.371-.755,57.388,57.388,0,0,1,10.049,0,38.913,38.913,0,0,1,5.371.755c2.454.5,5.412,1.51,6.461,3.713a5.2,5.2,0,0,1,0,4.469c-1.049,2.2-4.007,3.21-6.461,3.692a36.034,36.034,0,0,1-5.371.776,59.191,59.191,0,0,1-8.182.126,9.3,9.3,0,0,1-1.867-.126,35.335,35.335,0,0,1-5.35-.776C4.51,25.552,1.573,24.545.5,22.343A5.225,5.225,0,0,1,0,20.1Z" transform="translate(0 17.034)" fill="none" stroke="#ea5656" stroke-linecap="round" stroke-linejoin="round" stroke-width="3" fill-rule="evenodd"/>
  </g>
</svg>
