<svg xmlns="http://www.w3.org/2000/svg" width="24.971" height="31.214" viewBox="0 0 24.971 31.214"><path d="M16.485,2A12.485,12.485,0,0,0,4,14.485c0,8.428,11,17.948,11.471,18.354a1.561,1.561,0,0,0,2.029,0c.546-.406,11.471-9.926,11.471-18.354A12.485,12.485,0,0,0,16.485,2Zm0,27.546C13.161,26.425,7.121,19.7,7.121,14.485a9.364,9.364,0,1,1,18.728,0C25.849,19.7,19.81,26.44,16.485,29.546Zm0-21.3a6.243,6.243,0,1,0,6.243,6.243A6.243,6.243,0,0,0,16.485,8.243Zm0,9.364a3.121,3.121,0,1,1,3.121-3.121A3.121,3.121,0,0,1,16.485,17.607Z" transform="translate(-4 -2)" fill="#8f8e94"/></svg>