<svg xmlns="http://www.w3.org/2000/svg" xmlns:xlink="http://www.w3.org/1999/xlink" width="53" height="53" viewBox="0 0 53 53">
  <defs>
    <clipPath id="clip-path">
      <circle id="Ellipse_3" data-name="Ellipse 3" cx="26.5" cy="26.5" r="26.5" transform="translate(0 0)" fill="none"/>
    </clipPath>
    <radialGradient id="radial-gradient" cx="0.5" cy="0.5" r="0.5" gradientUnits="objectBoundingBox">
      <stop offset="0" stop-color="#ffd676"/>
      <stop offset="0.25" stop-color="#f2a454"/>
      <stop offset="0.38" stop-color="#f05c3c"/>
      <stop offset="0.7" stop-color="#c22f86"/>
      <stop offset="0.96" stop-color="#6666ad"/>
      <stop offset="0.99" stop-color="#5c6cb2"/>
    </radialGradient>
  </defs>
  <g id="Group_22" data-name="Group 22" transform="translate(0 0.244)">
    <g id="Group_16" data-name="Group 16" transform="translate(0 -0.244)" clip-path="url(#clip-path)">
      <ellipse id="Ellipse_2" data-name="Ellipse 2" cx="57" cy="57.5" rx="57" ry="57.5" transform="translate(-46 -7)" fill="url(#radial-gradient)"/>
    </g>
    <circle id="Ellipse_11" data-name="Ellipse 11" cx="2" cy="2" r="2" transform="translate(32 16.756)" fill="#fff"/>
    <path id="Path_27" data-name="Path 27" d="M54.655,48a6.655,6.655,0,1,0,6.655,6.655A6.655,6.655,0,0,0,54.655,48Zm0,9.982a3.327,3.327,0,1,1,3.327-3.327A3.327,3.327,0,0,1,54.655,57.982Z" transform="translate(-28.036 -28.08)" fill="#fff"/>
    <rect id="Rectangle_20" data-name="Rectangle 20" width="26.618" height="26.618" rx="6" transform="translate(13.517 13.474)" fill="none" stroke="#fff" stroke-miterlimit="10" stroke-width="2"/>
  </g>
</svg>
