<svg xmlns="http://www.w3.org/2000/svg" width="299.178" height="56.404" viewBox="0 0 299.178 56.404">
  <g id="Group_1" data-name="Group 1" transform="translate(0 -0.252)">
    <path id="Path_15" data-name="Path 15" d="M371.25,4.085h25.219q7.613,0,12.292,3.727a12.037,12.037,0,0,1,4.679,9.913,14.59,14.59,0,0,1-2.3,7.93,18.266,18.266,0,0,1-6.107,5.948,13.487,13.487,0,0,1,4.283,4.362,10.957,10.957,0,0,1,1.586,5.789,15.255,15.255,0,0,1-1.665,7.058,18.786,18.786,0,0,1-4.52,5.71,21.175,21.175,0,0,1-6.82,3.727A25.479,25.479,0,0,1,389.49,59.6H366.726a19.931,19.931,0,0,0,9.864-11.182h13.217a7.929,7.929,0,0,0,5.472-1.9,6.093,6.093,0,0,0,2.221-4.837,4.447,4.447,0,0,0-1.666-3.648,6.652,6.652,0,0,0-4.441-1.348h-13.72l-.31,1.432a19.894,19.894,0,0,0-10.39-13.937Zm22.919,11.182H382.194l-2.3,10.944h12.689a7.7,7.7,0,0,0,5.155-1.745,5.8,5.8,0,0,0,2.062-4.52,4.089,4.089,0,0,0-1.507-3.41A6.2,6.2,0,0,0,394.169,15.267ZM409.507,59.6,421.324,4.085h13.323L422.831,59.6Zm29.44-55.514L427.131,59.6h13.323l5.551-25.933L462.739,59.6h59.467l2.54-11.817h-29.9l2.22-10.468h19.509l2.379-11.42H499.447l2.141-9.992h29.58l2.537-11.816H473.683L447.275,27.4l5-23.316Zm51.818.175L479.119,58.974,459.567,30.731Zm46.549-.175L525.5,59.6H538.82l4.364-20.381h10.468L560.868,59.6h14.116L566.5,38.186a20.466,20.466,0,0,0,10.152-6.82,17.125,17.125,0,0,0,4.043-11.182,14.869,14.869,0,0,0-4.917-11.579q-4.838-4.52-12.61-4.52Zm10.865,11.658h12.61a6.283,6.283,0,0,1,4.519,1.586,5.161,5.161,0,0,1,1.745,4.124,6.013,6.013,0,0,1-2.221,4.758,7.815,7.815,0,0,1-5.393,1.9H545.56Z" transform="translate(-281.515 -2.942)" fill="#ea5656" fill-rule="evenodd"/>
    <path id="Path_16" data-name="Path 16" d="M82.747.252H64.631l.245.734h0l4.108,14.281H42.271a.974.974,0,0,0-.449.109L38.187,2.537H43.5a1.061,1.061,0,1,0,0-2.122H29.949a1.061,1.061,0,1,0,0,2.122h5.863l3.806,13.441-5.963,5.963c-6.085-5.916-13.279-6.953-16.37-6.67a1.061,1.061,0,1,0,.194,2.113c2.553-.234,9.093.645,14.676,6.057l-2.694,2.694a17.545,17.545,0,1,0,5.587,14.1H40.9a6.366,6.366,0,1,0,6.263-7.508q-.215,0-.427.014L42.392,17.389h27.16L71,22.445a17.5,17.5,0,1,0,2.2-.61l-1.6-5.578A1.149,1.149,0,0,0,71.5,16L67.623,2.537H82.584a1.8,1.8,0,0,1,.005,3.591H76.627a1.061,1.061,0,1,0,0,2.122h6.12V8.242a4,4,0,0,0,0-7.983ZM71.809,25.244a14.666,14.666,0,1,0,2.208-.591L78.051,38.7a1.143,1.143,0,0,1-2.2.631Zm-37.487-.738-3.288,3.288a17.466,17.466,0,0,1,4.025,10.159H40.9a6.375,6.375,0,0,1,3.619-4.65L40.331,18.5,34.7,24.128a1.067,1.067,0,0,1-.377.377Zm-5.4,5.4a14.62,14.62,0,0,1,3.186,8.048H20.874Zm-11.459-5.5a14.635,14.635,0,0,1,9.894,3.832L17.308,38.288a1.143,1.143,0,0,0,.808,1.95H32.108A14.689,14.689,0,1,1,17.463,24.407ZM51.574,38.932a4.243,4.243,0,1,1-4.243-4.243A4.243,4.243,0,0,1,51.574,38.932Zm33.7-1.2a1.142,1.142,0,0,0-2.282.11,9.365,9.365,0,0,1-.7,4.06,5.605,5.605,0,0,1-3.771,3.273,5.976,5.976,0,0,1-5.173-.937,6.892,6.892,0,0,1-2.562-3.115A1.142,1.142,0,1,0,68.6,41.8a9.092,9.092,0,0,0,3.444,4.32,8.258,8.258,0,0,0,7.1,1.258,7.888,7.888,0,0,0,5.238-4.549A11.643,11.643,0,0,0,85.275,37.735Z" transform="translate(0 0)" fill="#27332d" fill-rule="evenodd"/>
  </g>
</svg>
