<svg xmlns="http://www.w3.org/2000/svg" width="48.686" height="29.087" viewBox="0 0 48.686 29.087">
  <path id="Path_14" data-name="Path 14" d="M34.932.847,35.025.82l.008.027h7.972v0a2.064,2.064,0,0,1,0,4.12v0H39.847a.548.548,0,1,1,0-1.1h3.079a.927.927,0,0,0,0-1.853H35.372L37.36,8.936l-.012,0a.748.748,0,0,1,.05.128l.83,2.891a9.048,9.048,0,1,1-1.424.394l-.764-2.66H22.333l2.242,7.918h.067a3.285,3.285,0,1,1-3.2,4.024H18.377a9.055,9.055,0,1,1-2.983-7.528l1.295-1.295A10.361,10.361,0,0,0,9.333,9.827a.686.686,0,0,1-.125-1.366,11.707,11.707,0,0,1,8.451,3.379l2.92-2.92L18.627,2.027H15.756a.548.548,0,0,1,0-1.1h6.991a.548.548,0,1,1,0,1.1H20.163l1.865,6.586a.55.55,0,0,1,.13-.016H35.9l-2.12-7.37h0L33.656.847h1.276ZM37.22,13.8a7.568,7.568,0,1,0,1.428-.382l2.078,7.234a.739.739,0,0,1-1.42.408Zm-19.072-.355-1.736,1.736a9.011,9.011,0,0,1,1.972,4.978h3.058a3.291,3.291,0,0,1,1.7-2.184l-2.1-7.423L18.285,13.3a.693.693,0,0,1-.138.138ZM15.32,16.269a7.544,7.544,0,0,1,1.538,3.886H11.433ZM9.313,13.314a7.552,7.552,0,0,1,4.995,1.878l-5.18,5.18a.739.739,0,0,0,.522,1.261h7.208a7.581,7.581,0,1,1-7.545-8.32Zm17.6,7.5a2.19,2.19,0,1,1-2.19-2.19A2.19,2.19,0,0,1,26.917,20.81Zm17.542-.625a.739.739,0,0,0-1.476.071,4.684,4.684,0,0,1-.351,2.028,2.744,2.744,0,0,1-1.851,1.606,2.935,2.935,0,0,1-2.544-.463A3.416,3.416,0,0,1,36.973,21.9a.739.739,0,1,0-1.412.435A4.839,4.839,0,0,0,37.4,24.641a4.411,4.411,0,0,0,3.79.67,4.219,4.219,0,0,0,2.8-2.431A6.156,6.156,0,0,0,44.459,20.185Z" transform="translate(-0.3 -0.82)" fill="#fff" fill-rule="evenodd"/>
</svg>
