<svg xmlns="http://www.w3.org/2000/svg" width="40.628" height="40.628" viewBox="0 0 40.628 40.628">
  <path id="Path_34" data-name="Path 34" d="M42.63,31.665,39,28.037A5.806,5.806,0,0,0,30.86,28a3.549,3.549,0,0,1-4.5.44,24.777,24.777,0,0,1-6.828-6.815A3.6,3.6,0,0,1,20,17.111a5.806,5.806,0,0,0-.051-8.118L16.321,5.365a5.794,5.794,0,0,0-8.181,0L7.1,6.411c-5.442,5.442-5.034,16.882,6.288,28.2,6.827,6.828,13.7,9.688,19.27,9.688a12.367,12.367,0,0,0,8.934-3.4l1.045-1.045A5.793,5.793,0,0,0,42.63,31.665ZM40.3,37.52l-1.045,1.045c-4.287,4.287-13.751,3.5-23.541-6.288S5.138,13.016,9.425,8.729l1.037-1.044a2.492,2.492,0,0,1,3.517,0l3.628,3.628a2.492,2.492,0,0,1,.035,3.479,6.894,6.894,0,0,0-.876,8.639,28.049,28.049,0,0,0,7.772,7.76,6.891,6.891,0,0,0,8.626-.853,2.493,2.493,0,0,1,3.493.021l3.628,3.628A2.49,2.49,0,0,1,40.3,37.52Z" transform="translate(-3.698 -3.675)" fill="#ea5656"/>
</svg>
