<svg xmlns="http://www.w3.org/2000/svg" width="53.437" height="53.437" viewBox="0 0 53.437 53.437">
  <g id="Group_25" data-name="Group 25" transform="translate(-0.001)">
    <circle id="Ellipse_12" data-name="Ellipse 12" cx="26.719" cy="26.719" r="26.719" transform="translate(0.001 0)" fill="#55acee"/>
    <g id="Group_24" data-name="Group 24" transform="translate(11.957 16.207)">
      <path id="Path_28" data-name="Path 28" d="M56.232,37.023a12.742,12.742,0,0,1-3.668,1,6.4,6.4,0,0,0,2.809-3.533,12.785,12.785,0,0,1-4.056,1.549A6.392,6.392,0,0,0,40.434,41.87,18.129,18.129,0,0,1,27.27,35.2a6.393,6.393,0,0,0,1.976,8.527,6.341,6.341,0,0,1-2.892-.8c0,.027,0,.054,0,.081a6.39,6.39,0,0,0,5.123,6.262,6.411,6.411,0,0,1-2.884.111,6.393,6.393,0,0,0,5.966,4.435A12.892,12.892,0,0,1,25.1,56.456a18.065,18.065,0,0,0,9.789,2.87c11.747,0,18.171-9.731,18.171-18.172,0-.277-.006-.552-.019-.826a12.951,12.951,0,0,0,3.187-3.305Z" transform="translate(-25.103 -34.028)" fill="#f1f2f2"/>
    </g>
  </g>
</svg>
