<svg xmlns="http://www.w3.org/2000/svg" width="578.012" height="108.973" viewBox="0 0 578.012 108.973">
  <g id="Group_29" data-name="Group 29" transform="translate(0 -0.252)">
    <path id="Path_15" data-name="Path 15" d="M375.466,4.085H424.19q14.709,0,23.749,7.2t9.04,19.152a28.189,28.189,0,0,1-4.443,15.322,35.29,35.29,0,0,1-11.8,11.492,26.056,26.056,0,0,1,8.274,8.427,21.169,21.169,0,0,1,3.064,11.185A29.472,29.472,0,0,1,448.857,90.5a36.294,36.294,0,0,1-8.733,11.032,40.911,40.911,0,0,1-13.177,7.2,49.225,49.225,0,0,1-16.241,2.6h-43.98a38.507,38.507,0,0,0,19.058-21.6h25.535a15.318,15.318,0,0,0,10.572-3.677,11.771,11.771,0,0,0,4.29-9.346,8.591,8.591,0,0,0-3.218-7.048q-3.064-2.6-8.58-2.6H387.877l-.6,2.766A38.436,38.436,0,0,0,367.2,42.9Zm44.28,21.6H396.611l-4.443,21.144h24.515a14.885,14.885,0,0,0,9.959-3.371,11.2,11.2,0,0,0,3.984-8.733,7.9,7.9,0,0,0-2.911-6.588Q424.8,25.689,419.746,25.689Zm29.633,85.649L472.209,4.085h25.74L475.12,111.337ZM506.258,4.085,483.428,111.337h25.741l10.725-50.1,32.329,50.1H667.114l4.907-22.829H614.256l4.29-20.224h37.691l4.6-22.063H623.142l4.137-19.305h57.149l4.9-22.829H573.367s-40.679,45.046-51.021,45.046S532,4.085,532,4.085Zm100.112.338-22.5,105.707L546.094,55.566ZM696.3,4.085,673.47,111.337h25.741l8.431-39.377h20.224l13.943,39.377H769.08L752.686,69.968A39.54,39.54,0,0,0,772.3,56.792a33.086,33.086,0,0,0,7.811-21.6q0-13.79-9.5-22.37-9.346-8.733-24.362-8.733Zm20.991,22.523h24.363q5.515,0,8.731,3.064a9.971,9.971,0,0,1,3.371,7.967,11.616,11.616,0,0,1-4.292,9.193,15.1,15.1,0,0,1-10.419,3.677H712.234Z" transform="translate(-202.098 -2.112)" fill="#fff" fill-rule="evenodd"/>
    <path id="Path_16" data-name="Path 16" d="M159.867.252h-35l.473,1.419h0l7.937,27.591H81.668a1.882,1.882,0,0,0-.867.21l-7.024-24.8H84.033a2.05,2.05,0,1,0,0-4.1H57.861a2.05,2.05,0,1,0,0,4.1H69.189l7.353,25.969L65.021,42.156C53.264,30.726,39.366,28.722,33.394,29.27a2.05,2.05,0,1,0,.374,4.082C38.7,32.9,51.337,34.6,62.122,45.055l-5.2,5.2a33.9,33.9,0,1,0,10.8,27.246H79.028A12.3,12.3,0,1,0,91.127,63q-.415,0-.825.027L81.9,33.361h52.473l2.807,9.769a33.814,33.814,0,1,0,4.254-1.179l-3.1-10.776a2.221,2.221,0,0,0-.209-.494L130.647,4.666h28.9a3.469,3.469,0,0,1,.01,6.937h-11.52a2.05,2.05,0,1,0,0,4.1h11.824v-.014a7.726,7.726,0,0,0,0-15.422ZM138.734,48.537A28.334,28.334,0,1,0,143,47.4l7.8,27.136a2.207,2.207,0,0,1-4.243,1.219ZM66.31,47.11l-6.353,6.353a33.745,33.745,0,0,1,7.776,19.628H79.028a12.316,12.316,0,0,1,6.993-8.983L77.92,35.5,67.039,46.381a2.061,2.061,0,0,1-.729.729ZM55.878,57.542a28.245,28.245,0,0,1,6.156,15.549h-21.7ZM33.739,46.919a28.275,28.275,0,0,1,19.115,7.4L33.44,73.737A2.207,2.207,0,0,0,35,77.505H62.034A28.38,28.38,0,1,1,33.739,46.919Zm65.9,28.063a8.2,8.2,0,1,1-8.2-8.2A8.2,8.2,0,0,1,99.641,74.983Zm65.111-2.313a2.207,2.207,0,0,0-4.409.212,18.093,18.093,0,0,1-1.36,7.844,10.83,10.83,0,0,1-7.286,6.323,11.546,11.546,0,0,1-10-1.81,13.316,13.316,0,0,1-4.951-6.017,2.207,2.207,0,1,0-4.219,1.3,17.566,17.566,0,0,0,6.653,8.346A15.954,15.954,0,0,0,152.9,91.3a15.239,15.239,0,0,0,10.12-8.788A22.494,22.494,0,0,0,164.752,72.669Z" fill="#fff" fill-rule="evenodd"/>
  </g>
</svg>
