<svg id="Capa_1" enable-background="new 0 0 512 512" height="512" viewBox="0 0 512 512" width="512" xmlns="http://www.w3.org/2000/svg"><g><path d="m496 316c0-41.353-33.647-75-75-75-36.216 0-66.513 25.809-73.482 60h-31.518c-33.091 0-60 26.909-60 60v91c0 16.538-13.462 30-30 30s-30-13.462-30-30v-91h15c8.291 0 15-6.709 15-15v-46.787l91.86-73.491c17.886-14.326 28.14-35.669 28.14-58.564v-62.158c0-36.216-25.809-66.513-60-73.482v-16.518c0-8.291-6.709-15-15-15h-30c-24.814 0-45 20.186-45 45s20.186 45 45 45h30c8.291 0 15-6.709 15-15v-12.237c17.422 6.213 30 22.707 30 42.237v62.157c0 13.74-6.152 26.558-16.89 35.142l-10.876 8.701h-214.484l-10.86-8.687c-10.738-8.598-16.89-21.416-16.89-35.156v-62.157c0-19.53 12.578-36.024 30-42.237v12.237c0 8.291 6.709 15 15 15h30c24.814 0 45-20.186 45-45s-20.186-45-45-45h-30c-8.291 0-15 6.709-15 15v16.518c-34.191 6.969-60 37.266-60 73.482v62.157c0 22.896 10.254 44.238 28.14 58.579l91.86 73.477v46.787c0 8.291 6.709 15 15 15h15v91c0 33.091 26.909 60 60 60s60-26.909 60-60v-91c0-16.538 13.462-30 30-30h31.518c6.969 34.191 37.266 60 73.482 60 41.353 0 75-33.647 75-75zm-384.743-75h139.477l-49.109 39.287c-3.559 2.856-5.624 7.163-5.624 11.719v38.994h-30v-38.994c0-4.556-2.065-8.862-5.626-11.719zm309.743 90c-8.284 0-15-6.716-15-15 0-8.286 6.716-15 15-15s15 6.714 15 15c0 8.284-6.716 15-15 15z"/></g></svg>