<svg height="512pt" viewBox="-16 0 512 512" width="512pt" xmlns="http://www.w3.org/2000/svg"><path d="m120 332h90v30h-90zm0 0"/><path d="m120 271h240v30h-240zm0 0"/><path d="m120 211h240v30h-240zm0 0"/><path d="m120 150h240v30h-240zm0 0"/><path d="m240 90h90v30h-90zm0 0"/><path d="m480 362h-60v-362h-261.214844l-98.785156 98.785156v263.214844h-60v150h480zm-30 30v30h-30v-30zm-60 30h-300v-302h90v-90h210zm-278.785156-332 38.785156-38.785156v38.785156zm-51.214844 302v30h-30v-30zm-30 90v-30h420v30zm0 0"/></svg>